<?xml version="1.0" encoding="utf-8"?>
<!-- Generator: Adobe Illustrator 15.0.0, SVG Export Plug-In . SVG Version: 6.00 Build 0)  -->
<!DOCTYPE svg PUBLIC "-//W3C//DTD SVG 1.1//EN" "http://www.w3.org/Graphics/SVG/1.1/DTD/svg11.dtd">
<svg version="1.1" id="Layer_1" xmlns="http://www.w3.org/2000/svg" xmlns:xlink="http://www.w3.org/1999/xlink" x="0px" y="0px"
	 width="16px" height="16px" viewBox="0 0 16 16" enable-background="new 0 0 16 16" xml:space="preserve">
<g>
	<g>
		<path fill-rule="evenodd" clip-rule="evenodd" d="M11.076,16.002c0-2.061,0-4.122,0-6.182c0.687,0,1.373,0,2.059,0
			c0.112-0.795,0.209-1.607,0.313-2.412c-0.774-0.019-1.584-0.002-2.372-0.008c0.068-0.832-0.171-1.893,0.214-2.379
			c0.399-0.503,1.39-0.292,2.24-0.339c0-0.721,0-1.441,0-2.163c-0.765-0.049-1.613-0.167-2.38-0.066
			c-1.416,0.184-2.3,1.096-2.512,2.494C8.528,5.67,8.618,6.542,8.588,7.4c-0.691,0-1.383,0-2.075,0c0,0.804,0,1.607,0,2.411
			c0.672,0.025,1.402-0.008,2.075,0.017c0,2.059,0,4.116,0,6.174c-2.402,0-4.68,0-7.074,0c-0.27,0-0.545,0.03-0.757-0.025
			c-0.393-0.101-0.651-0.399-0.651-0.919c0-4.191,0-8.413,0-12.63c0-0.545-0.023-1.092,0-1.583C0.128,0.393,0.475,0.055,0.88,0.016
			c0.36-0.036,0.75,0,1.128,0c4.105,0,8.252,0,12.345,0c0.397,0,0.808-0.05,1.079,0.05c0.25,0.091,0.46,0.313,0.536,0.588
			c0.04,0.148,0.024,0.347,0.024,0.539c0,4.485,0,9.039,0,13.55c0,0.194,0.022,0.393-0.008,0.555
			c-0.056,0.297-0.263,0.524-0.494,0.629c-0.267,0.123-0.685,0.075-1.054,0.075C13.268,16.002,12.25,16.002,11.076,16.002z"/>
	</g>
</g>
</svg>
